<svg width="248" height="248" viewBox="0 0 248 248" fill="none" xmlns="http://www.w3.org/2000/svg">
<path fill-rule="evenodd" clip-rule="evenodd" d="M56.3787 247.878C50.848 247.681 43.7198 247.248 40.4799 246.594C35.5343 245.596 30.8639 244.082 26.9798 242.102C22.4164 239.776 18.3264 236.809 14.7948 233.283C11.2551 229.75 8.27594 225.656 5.94093 221.086C3.96685 217.223 2.45348 212.581 1.45052 207.663C0.783433 204.391 0.342248 197.209 0.142249 191.643C0.061146 189.368 0.0195327 186.423 0.0195327 185.066L0 62.9536C0 61.6012 0.0411886 58.656 0.121867 56.3783C0.318469 50.848 0.751161 43.7198 1.40551 40.4799C2.4038 35.5347 3.91844 30.8639 5.89761 26.9798C8.22371 22.4159 11.1906 18.3268 14.7166 14.7948C18.2495 11.2555 22.3438 8.27636 26.9136 5.94093C30.7772 3.96727 35.4192 2.45348 40.3364 1.45052C43.609 0.783433 50.7906 0.342248 56.3571 0.142674C58.6313 0.061146 61.5761 0.0195327 62.9341 0.0195327L185.046 0C186.399 0 189.344 0.040764 191.621 0.121867C197.152 0.318893 204.28 0.751161 207.52 1.40551C212.465 2.40423 217.136 3.91886 221.02 5.89761C225.583 8.22371 229.673 11.191 233.205 14.7166C236.744 18.25 239.723 22.3433 242.059 26.9136C244.032 30.7772 245.547 35.4188 246.549 40.3364C247.217 43.609 247.657 50.7911 247.857 56.3571C247.939 58.6318 247.98 61.5761 247.98 62.9341L248 185.046C248 186.399 247.959 189.344 247.878 191.621C247.681 197.152 247.248 204.28 246.594 207.52C245.596 212.465 244.081 217.136 242.102 221.02C239.776 225.584 236.809 229.673 233.283 233.205C229.75 236.744 225.656 239.724 221.086 242.059C217.222 244.033 212.581 245.547 207.663 246.549C204.391 247.216 197.209 247.657 191.643 247.857C189.368 247.939 186.423 247.98 185.066 247.98L62.9536 248C61.6007 248 58.6555 247.959 56.3787 247.878Z" fill="url(#paint0_radial_0_9)"/>
<mask id="mask0_0_9" style="mask-type:luminance" maskUnits="userSpaceOnUse" x="0" y="0" width="248" height="248">
<path fill-rule="evenodd" clip-rule="evenodd" d="M56.3787 247.878C50.848 247.681 43.7198 247.248 40.4799 246.594C35.5343 245.596 30.8639 244.082 26.9798 242.102C22.4164 239.776 18.3264 236.809 14.7948 233.283C11.2551 229.75 8.27594 225.656 5.94093 221.086C3.96685 217.223 2.45348 212.581 1.45052 207.663C0.783433 204.391 0.342248 197.209 0.142249 191.643C0.061146 189.368 0.0195327 186.423 0.0195327 185.066L0 62.9536C0 61.6012 0.0411886 58.656 0.121867 56.3783C0.318469 50.848 0.751161 43.7198 1.40551 40.4799C2.4038 35.5347 3.91844 30.8639 5.89761 26.9798C8.22371 22.4159 11.1906 18.3268 14.7166 14.7948C18.2495 11.2555 22.3438 8.27636 26.9136 5.94093C30.7772 3.96727 35.4192 2.45348 40.3364 1.45052C43.609 0.783433 50.7906 0.342248 56.3571 0.142674C58.6313 0.061146 61.5761 0.0195327 62.9341 0.0195327L185.046 0C186.399 0 189.344 0.040764 191.621 0.121867C197.152 0.318893 204.28 0.751161 207.52 1.40551C212.465 2.40423 217.136 3.91886 221.02 5.89761C225.583 8.22371 229.673 11.191 233.205 14.7166C236.744 18.25 239.723 22.3433 242.059 26.9136C244.032 30.7772 245.547 35.4188 246.549 40.3364C247.217 43.609 247.657 50.7911 247.857 56.3571C247.939 58.6318 247.98 61.5761 247.98 62.9341L248 185.046C248 186.399 247.959 189.344 247.878 191.621C247.681 197.152 247.248 204.28 246.594 207.52C245.596 212.465 244.081 217.136 242.102 221.02C239.776 225.584 236.809 229.673 233.283 233.205C229.75 236.744 225.656 239.724 221.086 242.059C217.222 244.033 212.581 245.547 207.663 246.549C204.391 247.216 197.209 247.657 191.643 247.857C189.368 247.939 186.423 247.98 185.066 247.98L62.9536 248C61.6007 248 58.6555 247.959 56.3787 247.878Z" fill="white"/>
</mask>
<g mask="url(#mask0_0_9)">
<path fill-rule="evenodd" clip-rule="evenodd" d="M124.5 31.9028C99.5993 31.9029 96.472 32.0125 86.6887 32.4602C76.9227 32.9099 70.2565 34.4647 64.4237 36.746C58.3901 39.1022 53.272 42.2541 48.173 47.3836C43.0702 52.5111 39.9359 57.6579 37.5852 63.7234C35.3109 69.5909 33.7629 76.2963 33.3233 86.1133C32.8857 95.9533 32.771 99.0994 32.771 124.153C32.771 149.207 32.8818 152.341 33.3252 162.181C33.7743 172.002 35.3205 178.706 37.5871 184.571C39.9321 190.638 43.0664 195.785 48.1673 200.913C53.2644 206.044 58.3825 209.204 64.4122 211.56C70.2489 213.841 76.9169 215.396 86.681 215.846C96.4662 216.294 99.5909 216.403 124.503 216.403C149.419 216.403 152.536 216.294 162.321 215.846C172.087 215.396 178.761 213.841 184.598 211.56C190.629 209.204 195.74 206.044 200.837 200.913C205.939 195.785 209.074 190.638 211.425 184.573C213.68 178.706 215.228 172 215.686 162.183C216.126 152.343 216.241 149.207 216.241 124.153C216.241 99.0994 216.126 95.9552 215.686 86.1152C215.228 76.2944 213.68 69.5909 211.425 63.7253C209.074 57.6579 205.939 52.5111 200.837 47.3836C195.734 42.2521 190.631 39.1003 184.592 36.746C178.744 34.4647 172.074 32.9099 162.308 32.4602C152.524 32.0125 149.408 31.9029 124.5 31.9028ZM116.285 48.5271C117.883 48.5245 119.602 48.5253 121.457 48.5261H121.457C122.437 48.5266 123.456 48.5271 124.514 48.5271C149.008 48.5271 151.911 48.6155 161.583 49.0575C170.528 49.4688 175.382 50.9717 178.616 52.2344C182.897 53.9064 185.949 55.9051 189.158 59.1339C192.368 62.3627 194.356 65.4377 196.022 69.7427C197.278 72.9906 198.775 77.8722 199.182 86.8666C199.621 96.5913 199.717 99.5126 199.717 124.132C199.717 148.751 199.621 151.672 199.182 161.397C198.773 170.391 197.278 175.273 196.022 178.521C194.36 182.826 192.368 185.891 189.158 189.118C185.947 192.347 182.898 194.346 178.616 196.018C175.386 197.286 170.528 198.785 161.583 199.197C151.913 199.639 149.008 199.735 124.514 199.735C100.019 199.735 97.116 199.639 87.4455 199.197C78.5013 198.781 73.6469 197.279 70.4113 196.016C66.1303 194.344 63.0725 192.345 59.8617 189.116C56.651 185.888 54.6634 182.82 52.9968 178.513C51.7412 175.265 50.2447 170.384 49.8377 161.389C49.3981 151.665 49.3102 148.743 49.3102 124.109C49.3102 99.4741 49.3981 96.5683 49.8377 86.8435C50.2467 77.8492 51.7412 72.9676 52.9968 69.7158C54.6595 65.4108 56.651 62.3358 59.8617 59.107C63.0725 55.8782 66.1303 53.8795 70.4113 52.2036C73.645 50.9352 78.5013 49.4361 87.4455 49.0229C95.9081 48.6385 99.1877 48.5232 116.285 48.504V48.5271ZM162.474 74.9108C162.474 68.7973 167.405 63.8446 173.482 63.8446V63.8408C179.56 63.8408 184.491 68.7992 184.491 74.9108C184.491 81.0224 179.56 85.9808 173.482 85.9808C167.405 85.9808 162.474 81.0224 162.474 74.9108ZM124.513 76.7787C98.4972 76.7792 77.4043 97.9908 77.4043 124.153C77.4043 150.316 98.4978 171.518 124.514 171.518C150.531 171.518 171.617 150.316 171.617 124.153C171.617 97.9908 150.53 76.7792 124.513 76.7787ZM124.513 76.7787C124.514 76.7787 124.514 76.7787 124.514 76.7787H124.512C124.513 76.7787 124.513 76.7787 124.513 76.7787ZM155.093 124.153C155.093 107.169 141.401 93.403 124.514 93.403C107.625 93.403 93.9358 107.169 93.9358 124.153C93.9358 141.135 107.625 154.903 124.514 154.903C141.401 154.903 155.093 141.135 155.093 124.153Z" fill="white"/>
</g>
<defs>
<radialGradient id="paint0_radial_0_9" cx="0" cy="0" r="1" gradientUnits="userSpaceOnUse" gradientTransform="translate(65.8753 267.101) rotate(-90) scale(245.786 245.786)">
<stop stop-color="#FFDD55"/>
<stop offset="0.1" stop-color="#FFDD55"/>
<stop offset="0.5" stop-color="#FF543E"/>
<stop offset="1" stop-color="#C837AB"/>
</radialGradient>
</defs>
</svg>
